<?xml version="1.0" standalone="no"?>
<!DOCTYPE svg PUBLIC "-//W3C//DTD SVG 20010904//EN"
 "http://www.w3.org/TR/2001/REC-SVG-20010904/DTD/svg10.dtd">
<svg version="1.0" xmlns="http://www.w3.org/2000/svg"
 width="860.000000pt" height="900.000000pt" viewBox="0 0 860.000000 900.000000"
 preserveAspectRatio="xMidYMid meet">

<g transform="translate(0.000000,900.000000) scale(0.100000,-0.100000)"
fill="#CCCCCC" stroke="none">
<path d="M4035 8583 c-22 -2 -103 -10 -180 -19 -1053 -116 -2017 -652 -2691
-1495 -163 -205 -351 -507 -466 -749 -197 -415 -309 -814 -370 -1315 -17 -144
-18 -663 0 -805 65 -542 193 -970 425 -1424 l71 -138 -64 -217 c-34 -119 -89
-306 -120 -416 -32 -110 -83 -287 -114 -393 -48 -165 -56 -205 -56 -275 0
-161 53 -290 165 -402 120 -120 255 -172 425 -162 83 5 146 20 510 127 228 66
494 144 591 171 l177 51 178 -89 c440 -220 856 -343 1374 -405 142 -17 680
-17 825 0 697 84 1289 302 1845 680 335 228 675 551 921 878 399 528 665 1147
764 1779 51 332 61 758 25 1075 -128 1110 -691 2092 -1580 2758 -691 518
-1541 797 -2405 790 -115 -1 -228 -3 -250 -5z m695 -438 c650 -88 1209 -314
1713 -693 896 -674 1417 -1721 1417 -2842 0 -557 -114 -1059 -350 -1548 -162
-335 -326 -575 -604 -887 -429 -482 -1046 -851 -1710 -1025 -477 -124 -1022
-146 -1516 -59 -393 69 -737 193 -1157 419 -74 39 -124 60 -146 60 -19 0 -186
-45 -373 -99 -900 -263 -969 -282 -1000 -276 -59 11 -114 73 -114 129 0 13 50
197 111 408 267 919 269 930 263 967 -3 20 -42 102 -86 183 -662 1222 -579
2670 219 3795 193 272 479 566 748 770 553 417 1218 667 1905 717 121 8 569
-4 680 -19z"/>
<path d="M3003 6745 c-79 -17 -271 -109 -366 -174 -233 -161 -402 -415 -470
-705 -18 -79 -21 -121 -20 -311 2 -807 310 -1542 898 -2144 537 -550 1155
-857 1915 -952 150 -18 489 -16 580 5 400 90 698 336 854 705 85 201 84 358
-2 527 -54 105 -82 129 -682 584 -69 52 -153 107 -186 123 -148 66 -302 63
-454 -9 -65 -31 -95 -55 -226 -185 l-151 -150 -77 25 c-384 129 -700 442 -827
821 l-27 80 132 135 c198 202 243 282 253 455 9 149 -25 248 -135 394 -304
403 -490 636 -536 671 -142 106 -304 142 -473 105z m205 -440 c26 -22 420
-532 485 -627 29 -43 34 -85 16 -121 -6 -12 -94 -105 -194 -207 -176 -178
-183 -187 -195 -240 -11 -49 -9 -67 15 -174 48 -215 139 -420 262 -596 86
-121 309 -344 433 -433 215 -152 559 -287 735 -287 80 0 110 21 306 215 185
184 185 185 230 185 42 0 57 -10 359 -240 173 -133 326 -251 339 -264 17 -17
25 -39 29 -75 4 -45 -1 -61 -48 -157 -45 -93 -63 -118 -138 -193 -99 -98 -166
-141 -290 -185 l-87 -31 -215 1 c-228 0 -345 13 -550 60 -790 178 -1492 740
-1860 1489 -97 197 -167 399 -220 640 -47 214 -62 621 -27 745 63 221 214 394
427 487 93 41 147 43 188 8z"/>
</g>
</svg>
